<?xml version="1.0" encoding="UTF-8"?>
<svg width="842px" height="235px" viewBox="0 0 842 235" version="1.1" xmlns="http://www.w3.org/2000/svg" xmlns:xlink="http://www.w3.org/1999/xlink">
    <!-- Generator: Sketch 52.2 (67145) - http://www.bohemiancoding.com/sketch -->
    <title>monomark</title>
    <desc>Created with Sketch.</desc>
    <g id="Page-1" stroke="none" stroke-width="1" fill="none" fill-rule="evenodd">
        <g id="monomark" transform="translate(10.000000, 10.000000)">
            <path d="M57.3,150.8 C57,152.1 57.9,153.3 59.1,153.6 C59.3,153.6 59.5,153.7 59.7,153.6 L74.8,153.6 C76,153.6 77,152.7 77.2,151.6 L82.8,112.1 L83.1,112.1 L104.7,153.5 C105.1,154.3 106,154.8 106.9,154.9 L109.2,154.9 C110.1,154.8 110.9,154.3 111.4,153.5 L132.9,112.1 L133.2,112.1 L139,151.6 C139.3,152.8 140.2,153.6 141.4,153.6 L156.5,153.6 C157.8,153.7 158.9,152.7 159,151.4 C159,151.2 159,151 159,150.8 L144.6,64.9 C144.4,63.8 143.5,62.9 142.3,62.9 L140.3,62.9 C139.4,63 138.6,63.4 138.1,64.2 L108.4,119.4 L108.1,119.4 L78.3,64.1 C77.8,63.4 77,62.9 76.1,62.8 L74.1,62.8 C72.9,62.9 72,63.7 71.8,64.8 L57.3,150.8 Z M168.6,109 C168.7,134.4 189.4,154.9 214.7,154.8 C240.1,154.7 260.6,134 260.5,108.7 C260.4,83.4 239.8,62.9 214.5,62.9 C189.3,62.7 168.8,83 168.6,108.2 C168.6,108.4 168.6,108.7 168.6,109 Z M189.1,109 C189.1,94.9 200.5,83.5 214.5,83.4 C228.6,83.4 240,94.8 240.1,108.8 C240.2,122.8 228.7,134.3 214.7,134.4 C214.7,134.4 214.6,134.4 214.6,134.4 C200.6,134.3 189.3,123 189.1,109 Z M276,151.2 C276,152.5 277.1,153.6 278.4,153.6 L293.6,153.6 C294.9,153.6 296,152.5 296,151.2 C296,151.2 296,151.2 296,151.2 L296,103.5 L296.1,103.5 L346.6,154.3 C347.1,154.6 347.7,154.9 348.3,154.9 L350.3,154.9 C351.6,154.9 352.7,153.9 352.7,152.6 L352.7,66.6 C352.7,65.3 351.6,64.2 350.3,64.2 L335,64.2 C333.7,64.2 332.6,65.3 332.6,66.6 C332.6,66.6 332.6,66.6 332.6,66.6 L332.6,112 L332.5,112 L281.5,62.9 L278.3,62.9 C277,62.9 275.9,63.9 275.9,65.2 L276,151.2 Z M368.3,109 C368.4,134.4 389.1,154.9 414.4,154.8 C439.8,154.7 460.3,134 460.2,108.7 C460.1,83.4 439.5,62.9 414.2,62.9 C389,62.7 368.5,83 368.3,108.2 C368.3,108.4 368.3,108.7 368.3,109 Z M388.8,109 C388.8,94.9 400.2,83.5 414.2,83.4 C428.3,83.4 439.7,94.8 439.8,108.8 C439.8,122.9 428.4,134.3 414.4,134.4 C414.4,134.4 414.3,134.4 414.3,134.4 C400.2,134.3 388.9,123 388.8,109 Z M470.1,150.8 C469.8,152.1 470.7,153.3 471.9,153.6 C472.1,153.6 472.3,153.7 472.5,153.6 L487.6,153.6 C488.8,153.6 489.8,152.7 490,151.6 L495.6,112.1 L495.9,112.1 L517.5,153.5 C517.9,154.3 518.8,154.8 519.7,154.9 L522,154.9 C522.9,154.8 523.7,154.3 524.2,153.5 L545.7,112.1 L546,112.1 L551.8,151.6 C552.1,152.8 553,153.6 554.2,153.6 L569.3,153.6 C570.6,153.7 571.7,152.7 571.8,151.4 C571.8,151.2 571.8,151 571.8,150.8 L557.4,64.9 C557.2,63.8 556.3,62.9 555.1,62.9 L553.1,62.9 C552.2,63 551.4,63.4 550.9,64.2 L521,119.3 L520.7,119.3 L491,64.1 C490.5,63.4 489.7,62.9 488.8,62.8 L486.8,62.8 C485.6,62.9 484.7,63.7 484.5,64.8 L470.1,150.8 Z M578.6,153.6 L592.7,153.6 C594.7,153.7 596.6,152.4 597.3,150.5 L601.9,140.3 L636.7,140.3 L641.3,150.4 C642.5,152.8 643.5,153.6 645.8,153.6 L660,153.6 C661.2,153.7 662.3,152.8 662.4,151.5 C662.4,151.1 662.3,150.6 662.1,150.2 L622.1,64.2 C621.7,63.4 620.8,62.8 619.9,62.8 L618.6,62.8 C617.7,62.8 616.8,63.4 616.4,64.2 L576.4,150.2 C575.8,151.3 576.2,152.7 577.3,153.3 C577.7,153.5 578.2,153.6 578.6,153.6 Z M609.6,122.9 L619.2,101.8 L619.3,101.8 L629,122.9 L609.6,122.9 Z M672.6,151.2 C672.6,152.5 673.7,153.6 675,153.6 C675,153.6 675,153.6 675,153.6 L690.2,153.6 C691.5,153.6 692.6,152.5 692.6,151.2 L692.6,118.6 L701.4,118.6 L718.4,152.5 C718.8,153.2 719.6,153.7 720.4,153.7 L737.4,153.7 C738.7,153.8 739.9,152.7 739.9,151.4 C739.9,150.9 739.8,150.4 739.5,150 L722,117.5 C733.1,113 740.9,103.6 740.9,91.8 C740.8,76.5 728.3,64.1 713,64.2 L675,64.2 C673.7,64.2 672.6,65.3 672.6,66.6 C672.6,66.6 672.6,66.6 672.6,66.6 L672.6,151.2 Z M692.7,102.3 L692.7,82.4 L711.6,82.4 C716.9,82.4 721.3,86.8 721.3,92.1 C721.3,97.5 716.8,102.3 711.6,102.3 L692.7,102.3 Z M758.2,150.5 C758.2,152.2 759.5,153.5 761.2,153.6 C761.2,153.6 761.3,153.6 761.3,153.6 L776.3,153.6 C778,153.6 779.3,152.2 779.4,150.5 L779.4,112.4 L808.9,152.5 C809.5,153.1 810.3,153.4 811.2,153.4 L828.8,153.4 C830.5,153.4 831.8,152 831.8,150.4 C831.8,149.8 831.6,149.2 831.3,148.7 L798.7,106.3 L828.6,68.8 C829.6,67.5 829.3,65.6 828,64.7 C827.5,64.3 826.9,64.1 826.3,64.1 L810.2,64.1 C809.3,64.2 808.4,64.7 807.8,65.4 L779.4,100.8 L779.4,67.2 C779.4,65.5 778,64.2 776.3,64.1 L761.3,64.1 C759.6,64.1 758.3,65.4 758.2,67.1 C758.2,67.1 758.2,67.2 758.2,67.2 L758.2,150.5 Z" id="Shape" fill="#FFFFFF" fill-rule="nonzero"></path>
            <rect id="Rectangle" stroke="#FFFFFF" stroke-width="21" x="0.5" y="0.5" width="414" height="214"></rect>
        </g>
    </g>
</svg>